<svg width="260" height="603" viewBox="0 0 260 603" fill="none" xmlns="http://www.w3.org/2000/svg">
<path d="M109.203 603L123.321 559.473L105.158 554.832L85.2515 541.85L82.1475 514.425L108.242 499.283L105.158 482.6L115.311 475.199L117.954 464.757L122.52 431.051L124.062 429.731L122.52 450.615L115.311 478.219L110.645 482.46L113.308 502.883L109.203 507.144L105.158 510.145L98.4288 547.071L104.056 550.891L115.311 554.832L132.754 550.071L138.842 555.152L120.077 580.656L115.311 599.459L114.97 602.98L109.203 603Z" fill="white"/>
<path d="M114.389 170.568L113.729 165.407L126.325 154.186L117.634 140.583L107.22 141.383L105.157 131.582L112.507 121.64L133.615 116.699L144.609 106.078V98.8164L140.343 95.0758L122.48 93.0354L107.22 75.3325L84.3702 36.7661L77.4812 21.8036L82.0071 0.66011L114.149 0L96.0455 7.2212L86.6131 24.124L96.0455 50.3884L109.824 76.5727L123.201 88.8347L137.059 85.2741H153.641L166.458 97.5762L149.555 111.919L133.514 124.081H117.874L112.567 127.821V133.822L121.979 141.383L133.615 152.465L137.46 161.647L139.643 177.729L122.08 165.407L114.389 170.568Z" fill="white"/>
<path d="M121.979 161.647L96.0455 179.19L61.8007 204.294L49.9052 207.234L28.0165 220.016L18.7845 225.917L11.7353 236.839L6.66863 245.101L10.3534 257.823L13.858 262.043L10.8942 312.972L4.68604 362.56L13.5576 372.342L22.3692 375.682L47.6823 394.325L62.1011 395.706L111.045 428.391L122.48 434.932L147.493 415.129L165.536 400.246L179.074 390.345L199.601 379.423L204.928 368.341L205.929 357.139L213.099 343.597L228.379 308.491L243.999 267.184L249.506 252.382L221.59 224.677L177.071 200.033L164.054 192.472L147.633 182.87L134.836 166.648L121.979 161.647Z" fill="white"/>
<path fill-rule="evenodd" clip-rule="evenodd" d="M122.52 431.051L10.8942 360.62L20.9073 233.259L153.421 323.034L122.52 431.051Z" fill="url(#paint0_radial)"/>
<path fill-rule="evenodd" clip-rule="evenodd" d="M20.9072 233.259L122.08 165.407L246.122 252.382L153.42 323.034L20.9072 233.259Z" fill="url(#paint1_radial)"/>
<path fill-rule="evenodd" clip-rule="evenodd" d="M246.122 252.382L198.5 374.302L122.52 431.051L149.155 320.153L246.122 252.382Z" fill="url(#paint2_radial)"/>
<path d="M123.742 261.543L55.6727 214.956L58.0759 213.355L126.085 259.943L123.742 261.543Z" fill="#49A1DA"/>
<path d="M100.011 227.478L75.6388 210.715L81.7468 206.594L106.079 223.377L100.011 227.478Z" fill="#49A1DA"/>
<path d="M145.51 191.612L138.421 196.413L125.744 204.994L109.864 193.932L101.653 188.211L121.579 174.849L145.51 191.612Z" fill="#49A1DA"/>
<path d="M98.1482 263.804L90.9989 268.705L85.2914 272.625L77.2409 267.184L68.9901 261.583L81.927 252.762L98.1482 263.804Z" fill="#49A1DA"/>
<path d="M207.992 262.203L200.983 267.104L195.375 271.025L187.505 265.584L179.415 259.963L192.111 251.162L207.992 262.203Z" fill="#49A1DA"/>
<path d="M169.021 274.966L144.649 258.203L150.617 254.082L174.929 270.865L169.021 274.966Z" fill="#49A1DA"/>
<path d="M157.266 299.27L132.673 282.507L138.621 278.406L163.153 295.169L157.266 299.27Z" fill="#49A1DA"/>
<path d="M182.318 284.127L174.828 278.966L180.736 274.846L188.206 280.006L182.318 284.127Z" fill="#49A1DA"/>
<path d="M142.346 264.964L134.836 259.803L140.804 255.682L148.314 260.843L142.346 264.964Z" fill="#49A1DA"/>
<path d="M124.883 277.006L117.313 271.845L123.301 267.744L130.831 272.905L124.883 277.006Z" fill="#49A1DA"/>
<path d="M138.421 196.413L125.744 204.994L109.864 193.932L122.62 185.351L138.421 196.413Z" fill="#73CEDF"/>
<path d="M90.999 268.705L85.2915 272.625L77.241 267.184L82.9885 263.264L90.999 268.705Z" fill="#73CEDF"/>
<path d="M200.983 267.104L195.375 271.025L187.505 265.584L193.153 261.663L200.983 267.104Z" fill="#73CEDF"/>
<path d="M59.4577 379.423L116.532 415.529L115.771 418.709L58.9771 382.884L59.4577 379.423Z" fill="#49A1DA"/>
<path d="M97.5875 361L119.296 375.142L117.413 383.404L95.9653 369.501L97.5875 361Z" fill="#49A1DA"/>
<path d="M130.831 342.257L127.106 358.099L125.124 366.461L124.543 368.961L104.256 355.639L102.574 354.539L108.001 326.994L112.948 330.315L130.831 342.257Z" fill="#49A1DA"/>
<path d="M38.5703 349.058L37.7493 357.139L36.5477 368.741L23.0901 360.24L24.7322 340.196L30.9404 344.177L38.5703 349.058Z" fill="#49A1DA"/>
<path d="M65.4455 344.897L64.2039 353.779L45.6796 341.817L42.896 340.016L42.9561 339.436L43.8773 330.875L65.4455 344.897Z" fill="#49A1DA"/>
<path d="M28.7775 276.946L51.5272 292.148L50.5259 301.25L28.0165 286.327L28.7775 276.946Z" fill="#49A1DA"/>
<path d="M24.2716 313.192L30.9403 317.533L30.1193 326.854L23.5306 322.573L24.2716 313.192Z" fill="#49A1DA"/>
<path d="M58.8569 297.249L65.8461 301.91L64.6645 310.872L57.7355 306.271L58.8569 297.249Z" fill="#49A1DA"/>
<path d="M130.831 342.257L127.106 358.099L109.724 346.698L112.948 330.315L130.831 342.257Z" fill="#73CEDF"/>
<path d="M30.9404 344.177L38.5704 349.058L37.7493 357.139L30.2595 352.418L30.9404 344.177Z" fill="#73CEDF"/>
<path d="M204.447 289.608L152.559 325.894L153.401 322.573L205.609 286.207L204.447 289.608Z" fill="#49A1DA"/>
<path d="M167.599 338.996L164.976 347.658L147.493 360.3L149.375 353.419L149.816 351.758L161.091 343.677L167.599 338.996Z" fill="#49A1DA"/>
<path d="M147.713 388.064L141.245 406.967L131.151 414.769L133.635 407.067L137.199 396.046L140.684 393.405L147.713 388.064Z" fill="#49A1DA"/>
<path d="M174.568 347.458L168.42 366.201L157.586 374.302L159.869 366.941L163.334 355.679L167.779 352.438L174.568 347.458Z" fill="#49A1DA"/>
<path d="M237.911 263.624L230.501 282.747L218.826 291.048L221.59 283.587L225.875 272.045L230.742 268.645L237.911 263.624Z" fill="#49A1DA"/>
<path d="M212.197 303.61L208.893 312.512L191.61 324.994L194.174 317.613L194.654 316.212L205.048 308.771L212.197 303.61Z" fill="#49A1DA"/>
<path d="M211.076 333.095L207.451 342.097L191.571 354.099L194.574 346.177L194.935 345.177L203.446 338.816L211.076 333.095Z" fill="#49A1DA"/>
<path d="M189.768 348.898L189.308 350.138L186.504 357.779L181.578 361.5L184.762 352.638L187.645 350.478L189.768 348.898Z" fill="#49A1DA"/>
<path d="M161.091 343.677L160.61 345.277L149.375 353.419L149.816 351.758L161.091 343.677Z" fill="#73CEDF"/>
<path d="M140.684 393.405L136.799 404.627L133.635 407.068L137.199 396.046L140.684 393.405Z" fill="#73CEDF"/>
<path d="M167.779 352.438L164.014 363.84L159.869 366.941L163.334 355.679L167.779 352.438Z" fill="#73CEDF"/>
<path d="M230.742 268.645L226.176 280.326L221.59 283.587L225.875 272.045L230.742 268.645Z" fill="#73CEDF"/>
<path d="M205.048 308.771L204.548 310.111L194.174 317.613L194.655 316.212L205.048 308.771Z" fill="#73CEDF"/>
<path d="M187.645 350.478L189.768 348.898L189.307 350.138L187.165 351.758L187.645 350.478Z" fill="#73CEDF"/>
<path d="M203.446 338.816L203.066 339.756L194.574 346.177L194.935 345.177L203.446 338.816Z" fill="#73CEDF"/>
<path d="M124.082 220.177C140.816 220.177 154.382 206.626 154.382 189.911C154.382 173.197 140.816 159.646 124.082 159.646C107.348 159.646 93.7826 173.197 93.7826 189.911C93.7826 206.626 107.348 220.177 124.082 220.177Z" fill="url(#paint3_radial)"/>
<path d="M194.574 297.029C211.308 297.029 224.874 283.479 224.874 266.764C224.874 250.049 211.308 236.499 194.574 236.499C177.84 236.499 164.275 250.049 164.275 266.764C164.275 283.479 177.84 297.029 194.574 297.029Z" fill="url(#paint4_radial)"/>
<path d="M117.313 375.662C134.047 375.662 147.613 362.112 147.613 345.397C147.613 328.682 134.047 315.132 117.313 315.132C100.579 315.132 87.0137 328.682 87.0137 345.397C87.0137 362.112 100.579 375.662 117.313 375.662Z" fill="url(#paint5_radial)"/>
<path d="M35.226 381.463C51.96 381.463 65.5256 367.913 65.5256 351.198C65.5256 334.483 51.96 320.933 35.226 320.933C18.492 320.933 4.92639 334.483 4.92639 351.198C4.92639 367.913 18.492 381.463 35.226 381.463Z" fill="url(#paint6_radial)"/>
<path d="M83.5692 290.948C96.399 290.948 106.8 280.56 106.8 267.744C106.8 254.929 96.399 244.541 83.5692 244.541C70.7395 244.541 60.3389 254.929 60.3389 267.744C60.3389 280.56 70.7395 290.948 83.5692 290.948Z" fill="url(#paint7_radial)"/>
<path d="M164.555 384.704C177.385 384.704 187.785 374.315 187.785 361.5C187.785 348.685 177.385 338.296 164.555 338.296C151.725 338.296 141.325 348.685 141.325 361.5C141.325 374.315 151.725 384.704 164.555 384.704Z" fill="url(#paint8_radial)"/>
<path d="M105.158 482.6L100.732 471.398L85.8723 467.097L77.4813 448.694L57.335 433.972L68.2693 414.709L65.8461 403.847L42.5156 380.563L48.8439 384.564L51.6075 388.064L62.1012 398.246L66.7874 401.187L70.2519 413.869L69.1304 419.51H73.8366L78.4026 412.768L82.1474 405.567L85.8723 407.928L82.1474 408.128L78.4026 414.769L72.7151 422.13L65.5257 422.63L61.6607 428.511V432.992L68.2693 436.752L80.1448 439.513L86.6133 455.336L87.7548 462.877V465.457L93.9228 467.097L100.732 467.338L109.443 467.618L111.045 478.299L105.158 482.6Z" fill="white"/>
<path d="M122.52 450.615L138.842 431.051L144.849 426.131L156.645 416.069L162.813 400.966L157.546 404.887L156.645 411.328L150.697 418.709L139.442 427.631L128.308 440.473L122.52 441.793V450.615Z" fill="#D6EEF4"/>
<path d="M126.025 144.924L166.738 179.43L188.747 192.472L203.246 222.317L191.611 213.355L189.087 198.753L186.744 193.592L177.072 188.811L159.228 174.849L145.51 163.547L136.639 159.706L129.509 152.465L126.025 144.924Z" fill="white"/>
<path d="M117.394 433.232L90.6786 421.25L81.847 408.568L65.5657 404.267L55.4525 397.746L38.971 392.925L38.8708 392.825L23.6509 377.243L16.7018 372.642L10.5738 370.841L0 362.8L0.0400524 343.497L10.3736 319.933L7.16937 302.71V302.63L10.3936 270.945L9.23207 255.702L10.3936 231.898L25.213 215.436L57.3951 199.533L72.0142 196.073L80.3651 185.431L93.6024 164.887L124.182 159.046L129.449 163.067L134.796 168.008L170.323 198.633L206.19 219.896L232.724 231.698L251.889 240.5L260 257.803L254.933 261.943L251.929 263.624L240.775 292.889L232.424 308.751L209.874 350.818L208.513 367.001L206.41 379.723L206.23 379.843L181.818 397.026L144.91 418.99L125.644 426.611L117.394 433.232ZM91.3394 420.45L117.253 432.052L125.204 425.691L144.469 418.069L181.257 396.166L205.469 379.123L207.491 366.861L208.913 350.418L231.523 308.251L239.854 292.448L251.108 262.904L254.373 261.103L258.778 257.503L251.148 241.24L232.324 232.599L205.749 220.777L169.742 199.433L134.135 168.828L128.808 163.907L123.942 160.187L94.2232 165.868L81.1862 186.071L72.5949 197.033L57.7555 200.533L25.7537 216.356L11.3749 232.359L10.2134 255.742L11.3749 271.005L8.15066 302.71L11.3949 320.113L0.981283 343.857V362.34L11.1145 370.021L17.2025 371.802L24.2918 376.502L39.5117 392.065L55.9331 396.906L66.0263 403.427L82.4278 407.728L82.5279 407.888L91.3394 420.45Z" fill="white"/>
<defs>
<radialGradient id="paint0_radial" cx="0" cy="0" r="1" gradientUnits="userSpaceOnUse" gradientTransform="translate(72.3478 331.365) rotate(-51.0763) scale(86.7188 85.0099)">
<stop stop-color="#413583"/>
<stop offset="1" stop-color="#2C173C"/>
</radialGradient>
<radialGradient id="paint1_radial" cx="0" cy="0" r="1" gradientUnits="userSpaceOnUse" gradientTransform="translate(133.518 242.821) rotate(-51.0763) scale(86.4586 84.7548)">
<stop stop-color="#6654A3"/>
<stop offset="1" stop-color="#5051A2"/>
</radialGradient>
<radialGradient id="paint2_radial" cx="0" cy="0" r="1" gradientUnits="userSpaceOnUse" gradientTransform="translate(183.552 341.452) rotate(18.6477) scale(71.3205 79.9411)">
<stop stop-color="#26225F"/>
<stop offset="1" stop-color="#220F2D"/>
</radialGradient>
<radialGradient id="paint3_radial" cx="0" cy="0" r="1" gradientUnits="userSpaceOnUse" gradientTransform="translate(124.081 189.921) scale(30.3014 30.2668)">
<stop stop-color="#3E58A7"/>
<stop offset="0.2171" stop-color="#3B4878" stop-opacity="0.7829"/>
<stop offset="0.4966" stop-color="#2C3148" stop-opacity="0.5034"/>
<stop offset="0.7297" stop-color="#1C1E28" stop-opacity="0.2703"/>
<stop offset="0.9041" stop-color="#0B0C0F" stop-opacity="0.0959"/>
<stop offset="1" stop-color="#010101" stop-opacity="0"/>
</radialGradient>
<radialGradient id="paint4_radial" cx="0" cy="0" r="1" gradientUnits="userSpaceOnUse" gradientTransform="translate(194.569 266.765) scale(30.3014 30.2668)">
<stop stop-color="#3E58A7"/>
<stop offset="0.2171" stop-color="#3B4878" stop-opacity="0.7829"/>
<stop offset="0.4966" stop-color="#2C3148" stop-opacity="0.5034"/>
<stop offset="0.7297" stop-color="#1C1E28" stop-opacity="0.2703"/>
<stop offset="0.9041" stop-color="#0B0C0F" stop-opacity="0.0959"/>
<stop offset="1" stop-color="#010101" stop-opacity="0"/>
</radialGradient>
<radialGradient id="paint5_radial" cx="0" cy="0" r="1" gradientUnits="userSpaceOnUse" gradientTransform="translate(117.322 345.406) scale(30.3014 30.2668)">
<stop stop-color="#3E58A7"/>
<stop offset="0.2171" stop-color="#3B4878" stop-opacity="0.7829"/>
<stop offset="0.4966" stop-color="#2C3148" stop-opacity="0.5034"/>
<stop offset="0.7297" stop-color="#1C1E28" stop-opacity="0.2703"/>
<stop offset="0.9041" stop-color="#0B0C0F" stop-opacity="0.0959"/>
<stop offset="1" stop-color="#010101" stop-opacity="0"/>
</radialGradient>
<radialGradient id="paint6_radial" cx="0" cy="0" r="1" gradientUnits="userSpaceOnUse" gradientTransform="translate(35.2282 351.193) scale(30.3014 30.2668)">
<stop stop-color="#3E58A7"/>
<stop offset="0.2171" stop-color="#3B4878" stop-opacity="0.7829"/>
<stop offset="0.4966" stop-color="#2C3148" stop-opacity="0.5034"/>
<stop offset="0.7297" stop-color="#1C1E28" stop-opacity="0.2703"/>
<stop offset="0.9041" stop-color="#0B0C0F" stop-opacity="0.0959"/>
<stop offset="1" stop-color="#010101" stop-opacity="0"/>
</radialGradient>
<radialGradient id="paint7_radial" cx="0" cy="0" r="1" gradientUnits="userSpaceOnUse" gradientTransform="translate(83.5763 267.742) scale(23.2308 23.2042)">
<stop stop-color="#3E58A7"/>
<stop offset="0.2171" stop-color="#3B4878" stop-opacity="0.7829"/>
<stop offset="0.4966" stop-color="#2C3148" stop-opacity="0.5034"/>
<stop offset="0.7297" stop-color="#1C1E28" stop-opacity="0.2703"/>
<stop offset="0.9041" stop-color="#0B0C0F" stop-opacity="0.0959"/>
<stop offset="1" stop-color="#010101" stop-opacity="0"/>
</radialGradient>
<radialGradient id="paint8_radial" cx="0" cy="0" r="1" gradientUnits="userSpaceOnUse" gradientTransform="translate(164.548 361.499) scale(23.2308 23.2043)">
<stop stop-color="#3E58A7"/>
<stop offset="0.2171" stop-color="#3B4878" stop-opacity="0.7829"/>
<stop offset="0.4966" stop-color="#2C3148" stop-opacity="0.5034"/>
<stop offset="0.7297" stop-color="#1C1E28" stop-opacity="0.2703"/>
<stop offset="0.9041" stop-color="#0B0C0F" stop-opacity="0.0959"/>
<stop offset="1" stop-color="#010101" stop-opacity="0"/>
</radialGradient>
</defs>
</svg>
